<svg xmlns="http://www.w3.org/2000/svg" viewBox="0 0 512 512" width="512" height="512"><defs>
  <radialGradient id="fondo" cx="50%" cy="42%" r="70%"><stop offset="0" stop-color="#17305F"/><stop offset=".55" stop-color="#0E1E40"/><stop offset="1" stop-color="#081329"/></radialGradient>
  <radialGradient id="interior" cx="45%" cy="38%" r="65%"><stop offset="0" stop-color="#1B3264"/><stop offset=".7" stop-color="#0F1E42"/><stop offset="1" stop-color="#0A1631"/></radialGradient>
  <linearGradient id="anillo" x1="0" y1="0" x2="1" y2="0"><stop offset="0" stop-color="#3D8BFF"/><stop offset=".45" stop-color="#7FB2FF"/><stop offset=".62" stop-color="#FFC06B"/><stop offset="1" stop-color="#FF7A2F"/></linearGradient>
  <linearGradient id="flecha" x1="0" y1="1" x2="1" y2="0"><stop offset="0" stop-color="#9FC3FF" stop-opacity=".2"/><stop offset=".35" stop-color="#DDEBFF"/><stop offset="1" stop-color="#FFFFFF"/></linearGradient>
  <linearGradient id="metal" x1="0" y1="0" x2="1" y2="0"><stop offset="0" stop-color="#7B8598"/><stop offset=".35" stop-color="#E9EDF3"/><stop offset=".5" stop-color="#FFFFFF"/><stop offset=".75" stop-color="#B9C1CE"/><stop offset="1" stop-color="#5E687B"/></linearGradient>
  <linearGradient id="aleta" x1="0" y1="0" x2="1" y2="0"><stop offset="0" stop-color="#596377"/><stop offset=".5" stop-color="#AEB6C4"/><stop offset="1" stop-color="#4C5569"/></linearGradient>
  <linearGradient id="llama" x1="0" y1="0" x2="0" y2="1"><stop offset="0" stop-color="#FFFFFF"/><stop offset=".25" stop-color="#FFE9A8"/><stop offset=".6" stop-color="#FFB14A"/><stop offset="1" stop-color="#FF6A2B" stop-opacity="0"/></linearGradient>
  <radialGradient id="saturno" cx="38%" cy="32%" r="75%"><stop offset="0" stop-color="#FBE3B8"/><stop offset=".5" stop-color="#E4B479"/><stop offset="1" stop-color="#9C6334"/></radialGradient>
  <linearGradient id="bandas" x1="0" y1="0" x2="0" y2="1"><stop offset="0" stop-color="#000" stop-opacity="0"/><stop offset=".45" stop-color="#8A5328" stop-opacity=".35"/><stop offset=".55" stop-color="#000" stop-opacity="0"/><stop offset=".7" stop-color="#8A5328" stop-opacity=".3"/><stop offset="1" stop-color="#000" stop-opacity="0"/></linearGradient>
  <linearGradient id="aro" x1="0" y1="0" x2="1" y2="0"><stop offset="0" stop-color="#C79A68"/><stop offset=".5" stop-color="#F4DDB9"/><stop offset="1" stop-color="#A9784A"/></linearGradient>
  <radialGradient id="sol" cx="42%" cy="38%" r="65%"><stop offset="0" stop-color="#FFFBE6"/><stop offset=".35" stop-color="#FFE27A"/><stop offset=".8" stop-color="#FFB02E"/><stop offset="1" stop-color="#FF8A1F"/></radialGradient>
  <radialGradient id="halo" cx="50%" cy="50%" r="50%"><stop offset="0" stop-color="#FFC857" stop-opacity=".75"/><stop offset=".5" stop-color="#FF9A2E" stop-opacity=".25"/><stop offset="1" stop-color="#FF9A2E" stop-opacity="0"/></radialGradient>
  <linearGradient id="nombre" x1="0" y1="0" x2="0" y2="1"><stop offset="0" stop-color="#FFE08A"/><stop offset=".55" stop-color="#FFB547"/><stop offset="1" stop-color="#F07A24"/></linearGradient>
  <linearGradient id="nombreClaro" x1="0" y1="0" x2="0" y2="1"><stop offset="0" stop-color="#FFB547"/><stop offset=".6" stop-color="#F28C1B"/><stop offset="1" stop-color="#D9621A"/></linearGradient>
  <filter id="brillo" x="-50%" y="-50%" width="200%" height="200%"><feGaussianBlur stdDeviation="7"/></filter>
  <filter id="brilloSuave" x="-50%" y="-50%" width="200%" height="200%"><feGaussianBlur stdDeviation="3"/></filter>
  <filter id="sombraTexto" x="-10%" y="-30%" width="120%" height="160%"><feDropShadow dx="0" dy="3" stdDeviation="4" flood-color="#000" flood-opacity=".45"/></filter>
</defs>
<rect width="512" height="512" fill="url(#fondo)"/>
<circle cx="256.0" cy="256.0" r="202" fill="#2F6BD8" opacity=".10" filter="url(#brillo)"/>
<circle cx="256.0" cy="256.0" r="166" fill="url(#interior)"/>
<polyline points="216.0,136.0 246.0,124.0 278.0,132.0 294.0,156.0" fill="none" stroke="#E9C58A" stroke-opacity=".45" stroke-width="1.4"/>
<circle cx="216.0" cy="136.0" r="2.4" fill="#FFE6B5" opacity=".9"/>
<circle cx="246.0" cy="124.0" r="2.4" fill="#FFE6B5" opacity=".9"/>
<circle cx="278.0" cy="132.0" r="2.4" fill="#FFE6B5" opacity=".9"/>
<circle cx="294.0" cy="156.0" r="2.4" fill="#FFE6B5" opacity=".9"/>
<polyline points="316.0,196.0 344.0,216.0 368.0,198.0 384.0,228.0" fill="none" stroke="#E9C58A" stroke-opacity=".45" stroke-width="1.4"/>
<circle cx="316.0" cy="196.0" r="2.4" fill="#FFE6B5" opacity=".9"/>
<circle cx="344.0" cy="216.0" r="2.4" fill="#FFE6B5" opacity=".9"/>
<circle cx="368.0" cy="198.0" r="2.4" fill="#FFE6B5" opacity=".9"/>
<circle cx="384.0" cy="228.0" r="2.4" fill="#FFE6B5" opacity=".9"/>
<polyline points="136.0,246.0 160.0,276.0 140.0,304.0 172.0,318.0" fill="none" stroke="#E9C58A" stroke-opacity=".45" stroke-width="1.4"/>
<circle cx="136.0" cy="246.0" r="2.4" fill="#FFE6B5" opacity=".9"/>
<circle cx="160.0" cy="276.0" r="2.4" fill="#FFE6B5" opacity=".9"/>
<circle cx="140.0" cy="304.0" r="2.4" fill="#FFE6B5" opacity=".9"/>
<circle cx="172.0" cy="318.0" r="2.4" fill="#FFE6B5" opacity=".9"/>
<polyline points="226.0,364.0 256.0,352.0 286.0,368.0 318.0,356.0 342.0,374.0" fill="none" stroke="#E9C58A" stroke-opacity=".45" stroke-width="1.4"/>
<circle cx="226.0" cy="364.0" r="2.4" fill="#FFE6B5" opacity=".9"/>
<circle cx="256.0" cy="352.0" r="2.4" fill="#FFE6B5" opacity=".9"/>
<circle cx="286.0" cy="368.0" r="2.4" fill="#FFE6B5" opacity=".9"/>
<circle cx="318.0" cy="356.0" r="2.4" fill="#FFE6B5" opacity=".9"/>
<circle cx="342.0" cy="374.0" r="2.4" fill="#FFE6B5" opacity=".9"/>
<polyline points="326.0,316.0 356.0,330.0 380.0,310.0" fill="none" stroke="#E9C58A" stroke-opacity=".45" stroke-width="1.4"/>
<circle cx="326.0" cy="316.0" r="2.4" fill="#FFE6B5" opacity=".9"/>
<circle cx="356.0" cy="330.0" r="2.4" fill="#FFE6B5" opacity=".9"/>
<circle cx="380.0" cy="310.0" r="2.4" fill="#FFE6B5" opacity=".9"/>
<circle cx="245.7" cy="276.5" r="1.4" fill="#FFFFFF" opacity="0.39"/>
<circle cx="201.8" cy="243.6" r="0.7" fill="#FFFFFF" opacity="0.65"/>
<circle cx="320.1" cy="271.4" r="0.7" fill="#FFFFFF" opacity="0.40"/>
<circle cx="144.2" cy="313.4" r="0.7" fill="#FFFFFF" opacity="0.48"/>
<circle cx="155.7" cy="152.6" r="1.3" fill="#FFFFFF" opacity="0.59"/>
<circle cx="263.0" cy="254.9" r="1.6" fill="#FFFFFF" opacity="0.52"/>
<circle cx="267.0" cy="270.1" r="1.0" fill="#FFFFFF" opacity="0.84"/>
<circle cx="293.3" cy="336.2" r="1.4" fill="#FFFFFF" opacity="0.57"/>
<circle cx="246.9" cy="253.2" r="0.7" fill="#FFFFFF" opacity="0.47"/>
<circle cx="228.5" cy="197.1" r="1.0" fill="#FFFFFF" opacity="0.70"/>
<circle cx="212.4" cy="269.2" r="1.6" fill="#FFFFFF" opacity="0.77"/>
<circle cx="259.2" cy="343.3" r="1.2" fill="#FFFFFF" opacity="0.88"/>
<circle cx="250.4" cy="212.6" r="1.8" fill="#FFFFFF" opacity="0.42"/>
<circle cx="155.8" cy="312.6" r="0.8" fill="#FFFFFF" opacity="0.64"/>
<circle cx="354.5" cy="280.8" r="1.5" fill="#FFFFFF" opacity="0.69"/>
<circle cx="289.8" cy="222.4" r="1.4" fill="#FFFFFF" opacity="0.71"/>
<circle cx="195.2" cy="222.6" r="1.6" fill="#FFFFFF" opacity="0.92"/>
<circle cx="156.4" cy="272.4" r="0.7" fill="#FFFFFF" opacity="0.77"/>
<circle cx="165.1" cy="135.5" r="1.6" fill="#FFFFFF" opacity="0.52"/>
<circle cx="179.4" cy="322.8" r="0.6" fill="#FFFFFF" opacity="0.63"/>
<circle cx="264.8" cy="271.5" r="0.7" fill="#FFFFFF" opacity="0.81"/>
<circle cx="281.9" cy="283.3" r="1.1" fill="#FFFFFF" opacity="0.87"/>
<circle cx="315.7" cy="289.1" r="1.3" fill="#FFFFFF" opacity="0.88"/>
<circle cx="311.4" cy="136.9" r="0.9" fill="#FFFFFF" opacity="0.60"/>
<circle cx="171.1" cy="360.2" r="1.7" fill="#FFFFFF" opacity="0.44"/>
<circle cx="271.8" cy="287.5" r="0.9" fill="#FFFFFF" opacity="0.64"/>
<circle cx="222.2" cy="234.8" r="0.6" fill="#FFFFFF" opacity="0.60"/>
<circle cx="197.4" cy="319.0" r="1.7" fill="#FFFFFF" opacity="0.76"/>
<circle cx="162.6" cy="246.9" r="1.4" fill="#FFFFFF" opacity="0.38"/>
<circle cx="351.7" cy="186.0" r="1.6" fill="#FFFFFF" opacity="0.83"/>
<circle cx="208.7" cy="294.0" r="0.7" fill="#FFFFFF" opacity="0.73"/>
<circle cx="265.5" cy="259.9" r="0.9" fill="#FFFFFF" opacity="0.45"/>
<circle cx="251.7" cy="262.7" r="0.6" fill="#FFFFFF" opacity="0.44"/>
<circle cx="300.4" cy="288.9" r="0.6" fill="#FFFFFF" opacity="0.87"/>
<circle cx="239.0" cy="241.2" r="0.9" fill="#FFFFFF" opacity="0.56"/>
<circle cx="243.7" cy="270.1" r="1.6" fill="#FFFFFF" opacity="0.95"/>
<circle cx="184.1" cy="271.6" r="0.7" fill="#FFFFFF" opacity="0.41"/>
<circle cx="233.9" cy="289.6" r="1.6" fill="#FFFFFF" opacity="0.45"/>
<circle cx="399.0" cy="276.9" r="1.2" fill="#FFFFFF" opacity="0.44"/>
<circle cx="252.0" cy="254.9" r="1.2" fill="#FFFFFF" opacity="0.94"/>
<circle cx="325.1" cy="175.9" r="0.9" fill="#FFFFFF" opacity="0.57"/>
<circle cx="314.4" cy="357.8" r="1.2" fill="#FFFFFF" opacity="0.82"/>
<circle cx="239.7" cy="285.7" r="1.6" fill="#FFFFFF" opacity="0.94"/>
<circle cx="329.6" cy="158.1" r="1.6" fill="#FFFFFF" opacity="0.79"/>
<circle cx="267.5" cy="333.8" r="1.0" fill="#FFFFFF" opacity="0.37"/>
<circle cx="297.8" cy="263.4" r="0.9" fill="#FFFFFF" opacity="0.77"/>
<path d="M330.0,129.0 Q332.0,136.0 339.0,138.0 Q332.0,140.0 330.0,147.0 Q328.0,140.0 321.0,138.0 Q328.0,136.0 330.0,129.0Z" fill="#FFB547" opacity="0.95"/>
<path d="M130.0,281.0 Q131.5,286.5 137.0,288.0 Q131.5,289.5 130.0,295.0 Q128.5,289.5 123.0,288.0 Q128.5,286.5 130.0,281.0Z" fill="#FF9A3C" opacity="0.95"/>
<path d="M396.0,276.0 Q397.8,282.2 404.0,284.0 Q397.8,285.8 396.0,292.0 Q394.2,285.8 388.0,284.0 Q394.2,282.2 396.0,276.0Z" fill="#FFFFFF" opacity="0.95"/>
<path d="M196.0,378.0 Q197.3,382.7 202.0,384.0 Q197.3,385.3 196.0,390.0 Q194.7,385.3 190.0,384.0 Q194.7,382.7 196.0,378.0Z" fill="#FFB547" opacity="0.95"/>
<path d="M290.0,391.0 Q291.1,394.9 295.0,396.0 Q291.1,397.1 290.0,401.0 Q288.9,397.1 285.0,396.0 Q288.9,394.9 290.0,391.0Z" fill="#FFFFFF" opacity="0.95"/>
<path d="M374.0,165.0 Q375.1,168.9 379.0,170.0 Q375.1,171.1 374.0,175.0 Q372.9,171.1 369.0,170.0 Q372.9,168.9 374.0,165.0Z" fill="#FFFFFF" opacity="0.95"/>
<path d="M120.5,361.9 A172,172 0 0 1 342.0,107.0" fill="none" stroke="url(#anillo)" stroke-width="16" stroke-linecap="round" opacity=".55" filter="url(#brilloSuave)"/>
<path d="M120.5,361.9 A172,172 0 0 1 342.0,107.0" fill="none" stroke="url(#anillo)" stroke-width="11" stroke-linecap="round"/>
<path d="M410.6,180.6 A172,172 0 0 1 387.8,366.6" fill="none" stroke="url(#anillo)" stroke-width="16" stroke-linecap="round" opacity=".55" filter="url(#brilloSuave)"/>
<path d="M410.6,180.6 A172,172 0 0 1 387.8,366.6" fill="none" stroke="url(#anillo)" stroke-width="11" stroke-linecap="round"/>
<g transform="translate(178.0,194.0) rotate(-18)">
      <path d="M-40,0 A40,10 0 0,1 40,0" fill="none" stroke="url(#aro)" stroke-width="5" opacity=".9"/>
      <circle r="20" fill="url(#saturno)"/><circle r="20" fill="url(#bandas)"/>
      <path d="M-40,0 A40,10 0 0,0 40,0" fill="none" stroke="url(#aro)" stroke-width="5"/>
      <path d="M-40,0 A40,10 0 0,0 40,0" fill="none" stroke="#FFF3DD" stroke-width="1" opacity=".6"/>
    </g>
<path d="M216.4,369.4 L223.3,367.9 L230.1,366.0 L236.7,364.0 L243.2,361.8 L249.6,359.5 L255.8,357.0 L262.0,354.3 L268.0,351.5 L273.9,348.5 L279.7,345.4 L285.4,342.1 L291.0,338.6 L296.4,335.0 L301.7,331.3 L307.0,327.3 L312.0,323.3 L317.0,319.1 L321.8,314.7 L326.6,310.2 L331.1,305.5 L335.6,300.7 L339.9,295.7 L344.2,290.5 L348.2,285.2 L352.2,279.8 L356.0,274.2 L359.7,268.5 L363.3,262.6 L366.7,256.5 L370.0,250.4 L373.2,244.0 L376.2,237.6 L379.1,230.9 L381.9,224.2 L384.5,217.3 L387.0,210.2 L389.4,203.0 L391.6,195.7 L393.7,188.2 L395.7,180.6 L415.4,189.0 L396.5,121.4 L350.9,174.8 L372.3,175.4 L370.8,182.7 L369.2,189.8 L367.6,196.7 L365.7,203.6 L363.8,210.3 L361.7,216.9 L359.5,223.3 L357.2,229.6 L354.8,235.8 L352.2,241.9 L349.6,247.8 L346.8,253.6 L343.8,259.3 L340.8,264.8 L337.6,270.3 L334.3,275.6 L330.9,280.7 L327.3,285.8 L323.7,290.7 L319.9,295.5 L315.9,300.2 L311.9,304.8 L307.7,309.2 L303.3,313.5 L298.9,317.7 L294.3,321.8 L289.5,325.7 L284.7,329.6 L279.7,333.3 L274.5,336.9 L269.2,340.4 L263.8,343.7 L258.3,347.0 L252.6,350.1 L246.8,353.1 L240.8,356.0 L234.7,358.7 L228.4,361.4 L222.1,364.0 L215.6,366.6Z" fill="#BFD8FF" opacity=".35" filter="url(#brilloSuave)"/>
<path d="M216.4,369.4 L223.3,367.9 L230.1,366.0 L236.7,364.0 L243.2,361.8 L249.6,359.5 L255.8,357.0 L262.0,354.3 L268.0,351.5 L273.9,348.5 L279.7,345.4 L285.4,342.1 L291.0,338.6 L296.4,335.0 L301.7,331.3 L307.0,327.3 L312.0,323.3 L317.0,319.1 L321.8,314.7 L326.6,310.2 L331.1,305.5 L335.6,300.7 L339.9,295.7 L344.2,290.5 L348.2,285.2 L352.2,279.8 L356.0,274.2 L359.7,268.5 L363.3,262.6 L366.7,256.5 L370.0,250.4 L373.2,244.0 L376.2,237.6 L379.1,230.9 L381.9,224.2 L384.5,217.3 L387.0,210.2 L389.4,203.0 L391.6,195.7 L393.7,188.2 L395.7,180.6 L415.4,189.0 L396.5,121.4 L350.9,174.8 L372.3,175.4 L370.8,182.7 L369.2,189.8 L367.6,196.7 L365.7,203.6 L363.8,210.3 L361.7,216.9 L359.5,223.3 L357.2,229.6 L354.8,235.8 L352.2,241.9 L349.6,247.8 L346.8,253.6 L343.8,259.3 L340.8,264.8 L337.6,270.3 L334.3,275.6 L330.9,280.7 L327.3,285.8 L323.7,290.7 L319.9,295.5 L315.9,300.2 L311.9,304.8 L307.7,309.2 L303.3,313.5 L298.9,317.7 L294.3,321.8 L289.5,325.7 L284.7,329.6 L279.7,333.3 L274.5,336.9 L269.2,340.4 L263.8,343.7 L258.3,347.0 L252.6,350.1 L246.8,353.1 L240.8,356.0 L234.7,358.7 L228.4,361.4 L222.1,364.0 L215.6,366.6Z" fill="url(#flecha)"/>
<g transform="translate(258.0,258.0) rotate(42) scale(.92)">
      <ellipse cx="0" cy="108" rx="22" ry="44" fill="#FF9A3C" opacity=".5" filter="url(#brillo)"/>
      <path d="M-15,74 Q0,170 15,74 Z" fill="url(#llama)"/>
      <path d="M-8,74 Q0,122 8,74 Z" fill="#FFFFFF" opacity=".95"/>
      <path d="M-21,24 L-46,76 L-46,92 L-19,74 Z" fill="url(#aleta)"/>
      <path d="M21,24 L46,76 L46,92 L19,74 Z" fill="url(#aleta)"/>
      <rect x="-15" y="70" width="30" height="12" rx="3" fill="#4F586B"/>
      <path d="M0,-124 C20,-104 27,-64 26,-14 L25,74 L-25,74 L-26,-14 C-27,-64 -20,-104 0,-124 Z" fill="url(#metal)"/>
      <path d="M-22,-74 Q0,-80 22,-74" fill="none" stroke="#6B7589" stroke-width="2"/>
      <path d="M-25,30 Q0,26 25,30" fill="none" stroke="#6B7589" stroke-width="2"/>
      <path d="M-25,54 Q0,50 25,54" fill="none" stroke="#6B7589" stroke-width="1.5" opacity=".7"/>
      <circle cy="-42" r="8" fill="#1B3E78" stroke="#D5DCE7" stroke-width="3"/>
      <circle cx="-2.5" cy="-45" r="2.4" fill="#FFFFFF" opacity=".8"/>
      <circle cy="-14" r="5.5" fill="#1B3E78" stroke="#D5DCE7" stroke-width="2.5"/>
      <rect x="-3" y="36" width="6" height="52" rx="2" fill="#6A7488"/>
    </g>
<circle cx="250.0" cy="406.0" r="39" fill="url(#halo)"/><path d="M261.0,404.7 L272.8,406.0 L261.0,407.3Z M260.2,410.3 L266.3,415.4 L258.8,412.7Z M256.7,414.8 L261.4,425.7 L254.3,416.2Z M251.3,417.0 L250.0,424.9 L248.7,417.0Z M245.7,416.2 L238.6,425.7 L243.3,414.8Z M241.2,412.7 L233.7,415.4 L239.8,410.3Z M239.0,407.3 L227.2,406.0 L239.0,404.7Z M239.8,401.7 L233.7,396.6 L241.2,399.3Z M243.3,397.2 L238.6,386.3 L245.7,395.8Z M248.7,395.0 L250.0,387.1 L251.3,395.0Z M254.3,395.8 L261.4,386.3 L256.7,397.2Z M258.8,399.3 L266.3,396.6 L260.2,401.7Z" fill="#FFB43C"/><circle cx="250.0" cy="406.0" r="13" fill="url(#sol)"/></svg>